<svg width="200" height="44" viewBox="0 0 200 44" fill="none" xmlns="http://www.w3.org/2000/svg">
<g opacity="0.3">
<path d="M72.9091 43.8167L63.6364 27.1333H57.8182C61.2727 26.7667 64.1818 25.4833 66.5454 23.4667C69.6364 20.9 71.2727 17.6 71.2727 13.75C71.2727 9.9 69.6364 6.6 66.5454 4.03333C63.4545 1.28333 59.4545 0 54.9091 0H34.5455L22.5455 31.5333L10.1818 0H0V43.8167H2.54545V4.76667L17.8182 43.8167H20.7273L35.2727 4.95V43.8167H44.7273V27.3167H53.2727L62.3636 43.8167H72.9091ZM44.7273 25.1167V2.2H51.8182C56.9091 2.2 60.3636 6.78333 60.3636 13.75C60.3636 20.7167 56.9091 25.3 51.8182 25.3H44.7273V25.1167Z" fill="white"/>
<path d="M126.364 33L121.818 24.5667H118.909C120.545 24.3833 122 23.65 123.273 22.7333C124.909 21.45 125.636 19.8 125.636 17.7833C125.636 15.7667 124.909 14.3 123.273 13.0167C121.636 11.7333 119.818 11 117.455 11H107.636V33H112.364V24.75H116.727L121.273 33H126.364ZM112.364 23.65V12.1H115.818C118.364 12.1 120 14.3 120 17.7833C120 21.2667 118.364 23.4667 115.818 23.4667H112.364V23.65Z" fill="white"/>
<path d="M140.545 33C137.273 33 134.545 31.9 132.364 29.8833C130.182 27.6833 129.091 25.1167 129.091 22C129.091 18.8833 130.182 16.1333 132.364 14.1167C134.545 11.9167 137.273 11 140.545 11C143.818 11 146.545 12.1 148.727 14.1167C150.909 16.3167 152 18.8833 152 22C152 25.1167 150.909 27.8667 148.727 29.8833C146.545 32.0833 143.818 33 140.545 33ZM140.545 32.2667C142.545 32.2667 144 31.35 145.273 29.5167C146.545 27.6833 147.091 25.1167 147.091 22C147.091 18.8833 146.545 16.5 145.273 14.4833C144.182 12.65 142.545 11.7333 140.545 11.7333C138.545 11.7333 137.091 12.65 135.818 14.4833C134.727 16.3167 134 18.8833 134 22C134 25.1167 134.545 27.5 135.818 29.5167C136.909 31.35 138.545 32.2667 140.545 32.2667Z" fill="white"/>
<path d="M172.364 11C172.364 11 172.364 26.2167 172.364 28.9667C171.273 30.6167 169.455 31.5333 167.091 31.5333C163.091 31.5333 160.546 28.9667 160.546 24.5667V11H155.818V24.0167C155.818 26.5833 156.727 28.7833 158.546 30.4333C160.364 32.0833 162.727 32.8167 165.636 32.8167C168.364 32.8167 170.364 32.0833 172 30.6167C172.364 30.25 172.727 29.8833 172.909 29.5167L176.364 33H177.091V11H172.364Z" fill="white"/>
<path d="M191.636 11C194 11 195.818 11.7333 197.455 13.0167C199.091 14.3 199.818 15.95 199.818 17.7833C199.818 19.8 199.091 21.2667 197.455 22.7333C195.818 24.0167 194 24.75 191.636 24.75H186.545V33H181.818V11H191.636ZM190.182 23.65C192.727 23.65 194.364 21.45 194.364 17.9667C194.364 14.4833 192.727 12.2833 190.182 12.2833H186.727V23.65H190.182Z" fill="white"/>
<path d="M98.1818 23.6497C98.1818 23.6497 98.1818 26.7664 98.1818 29.1497C97.6364 31.1664 95.8182 32.4497 93.2727 32.4497C91.0909 32.4497 89.6364 31.5331 88.3636 29.6997C87.0909 27.8664 86.5454 25.4831 86.5454 22.3664C86.5454 15.7664 89.6364 11.9164 94.7273 11.9164C96.5454 11.9164 98 12.2831 99.0909 13.1997C100.364 14.1164 100.909 15.2164 100.909 16.6831H101.818C101.818 15.0331 100.909 13.3831 99.4545 12.2831C98 11.1831 96 10.8164 93.6364 10.8164C90.1818 10.8164 87.4545 11.9164 85.0909 13.9331C82.9091 16.1331 81.8182 18.8831 81.8182 21.9997C81.8182 25.1164 82.9091 27.8664 85.0909 30.0664C87.2727 32.2664 90.1818 33.1831 93.2727 33.1831C96.1818 33.1831 98.5454 32.2664 99.6364 30.6164L102.182 32.9997H102.909V23.6497H98.1818Z" fill="white"/>
</g>
</svg>
