<?xml version="1.0" encoding="utf-8"?><svg viewBox="0 0 200 44" xmlns="http://www.w3.org/2000/svg" xmlns:xlink="http://www.w3.org/1999/xlink"><style>:root>svg{display:none}:root>svg:target{display:block}</style><svg fill="none" viewBox="0 0 8 31" id="arrow-bottom" xmlns="http://www.w3.org/2000/svg"><path d="M3.646 30.354a.5.5 0 00.708 0l3.182-3.182a.5.5 0 10-.708-.707L4 29.293l-2.828-2.828a.5.5 0 10-.708.707l3.182 3.182zM4.5 30V0h-1v30h1z" fill="#242D36"/></svg><svg fill="none" viewBox="0 0 33 33" id="close" xmlns="http://www.w3.org/2000/svg"><path fill="#fff" d="M2.358.237l30.405 30.406-2.121 2.12L.236 2.359z"/><path fill="#fff" d="M30.642.237L.236 30.642l2.122 2.121L32.763 2.358z"/></svg><svg fill="none" viewBox="0 0 200 44" id="hide-logo" xmlns="http://www.w3.org/2000/svg"><g opacity=".3" fill="#fff"><path d="M72.91 43.817l-9.274-16.684h-5.818c3.455-.366 6.364-1.65 8.727-3.666 3.091-2.567 4.728-5.867 4.728-9.717 0-3.85-1.637-7.15-4.728-9.717C63.455 1.283 59.455 0 54.91 0H34.545l-12 31.533L10.183 0H0v43.817h2.545V4.767l15.273 39.05h2.91L35.272 4.95v38.867h9.454v-16.5h8.546l9.09 16.5H72.91zm-28.183-18.7V2.2h7.091c5.091 0 8.546 4.583 8.546 11.55 0 6.967-3.455 11.55-8.546 11.55h-7.09v-.183zM126.364 33l-4.546-8.433h-2.909c1.636-.184 3.091-.917 4.364-1.834 1.636-1.283 2.363-2.933 2.363-4.95 0-2.016-.727-3.483-2.363-4.766-1.637-1.284-3.455-2.017-5.818-2.017h-9.819v22h4.728v-8.25h4.363l4.546 8.25h5.091zm-14-9.35V12.1h3.454c2.546 0 4.182 2.2 4.182 5.683 0 3.484-1.636 5.684-4.182 5.684h-3.454v.183zM140.545 33c-3.272 0-6-1.1-8.181-3.117-2.182-2.2-3.273-4.766-3.273-7.883s1.091-5.867 3.273-7.883c2.181-2.2 4.909-3.117 8.181-3.117 3.273 0 6 1.1 8.182 3.117C150.909 16.317 152 18.883 152 22s-1.091 5.867-3.273 7.883c-2.182 2.2-4.909 3.117-8.182 3.117zm0-.733c2 0 3.455-.917 4.728-2.75 1.272-1.834 1.818-4.4 1.818-7.517s-.546-5.5-1.818-7.517c-1.091-1.833-2.728-2.75-4.728-2.75-2 0-3.454.917-4.727 2.75C134.727 16.317 134 18.883 134 22s.545 5.5 1.818 7.517c1.091 1.833 2.727 2.75 4.727 2.75zM172.364 11v17.967c-1.091 1.65-2.909 2.566-5.273 2.566-4 0-6.545-2.566-6.545-6.966V11h-4.728v13.017c0 2.566.909 4.766 2.728 6.416 1.818 1.65 4.181 2.384 7.09 2.384 2.728 0 4.728-.734 6.364-2.2.364-.367.727-.734.909-1.1L176.364 33h.727V11h-4.727zM191.636 11c2.364 0 4.182.733 5.819 2.017 1.636 1.283 2.363 2.933 2.363 4.766 0 2.017-.727 3.484-2.363 4.95-1.637 1.284-3.455 2.017-5.819 2.017h-5.091V33h-4.727V11h9.818zm-1.454 12.65c2.545 0 4.182-2.2 4.182-5.683 0-3.484-1.637-5.684-4.182-5.684h-3.455V23.65h3.455zM98.182 23.65v5.5c-.546 2.016-2.364 3.3-4.91 3.3-2.181 0-3.636-.917-4.908-2.75-1.273-1.834-1.819-4.217-1.819-7.334 0-6.6 3.091-10.45 8.182-10.45 1.818 0 3.273.367 4.364 1.284 1.273.916 1.818 2.016 1.818 3.483h.909c0-1.65-.909-3.3-2.364-4.4-1.454-1.1-3.454-1.467-5.818-1.467-3.454 0-6.181 1.1-8.545 3.117-2.182 2.2-3.273 4.95-3.273 8.067 0 3.116 1.091 5.866 3.273 8.066 2.182 2.2 5.09 3.117 8.182 3.117 2.909 0 5.272-.917 6.363-2.567L102.182 33h.727v-9.35h-4.727z"/></g></svg><svg fill="none" viewBox="0 0 22 22" id="icon-inst" xmlns="http://www.w3.org/2000/svg"><rect x=".5" y=".5" width="21" height="21" rx="4.5" stroke="currentColor"/><circle cx="11" cy="11" r="4.5" stroke="currentColor"/><circle cx="17" cy="5" r="1" fill="currentColor"/></svg><svg fill="none" viewBox="0 0 22 22" id="icon-tw" xmlns="http://www.w3.org/2000/svg"><path d="M6.315 16.092a8.576 8.576 0 01-4.53 1.336c.308.162.623.31.944.444m3.586-1.78L20.735 5.46a8.528 8.528 0 01-1.534 1.402c.009.176.014.357.014.537 0 5.504-4.258 11.851-12.05 11.851a11.975 11.975 0 01-5.502-1.322h.033c.347.001.691-.018 1.033-.056m3.586-1.78c.206.031.416.049.629.053l.01-.5-.306-.396a8.054 8.054 0 01-.442.317 4.232 4.232 0 01-2.988-2.271c.19.024.383.036.576.036m-1.065 4.54c1.4.582 2.906.883 4.434.879h.002c7.466 0 11.55-6.07 11.55-11.35 0-.173-.005-.345-.013-.514l-.013-.273.223-.158c.317-.226.616-.474.896-.742a9.17 9.17 0 01-.866.146l-.312-.928a3.69 3.69 0 00.914-.757 8.995 8.995 0 01-1.393.386l-.268.052-.188-.198a3.76 3.76 0 00-2.728-1.164h0c-2.07 0-3.731 1.648-3.731 3.664v.002c-.002.28.03.56.095.831l.154.647-.663-.031A12.561 12.561 0 012.25 4.412a3.611 3.611 0 00-.204 1.191c0 1.265.66 2.389 1.665 3.05l1.46.959-1.746-.041a4.69 4.69 0 01-1.336-.228c.3 1.431 1.45 2.561 2.915 2.85l.032.975a4.833 4.833 0 01-1.23.163 3.75 3.75 0 003.155 1.814l1.425.026-1.129.87a9.077 9.077 0 01-4.529 1.83zm1.065-4.54s0 0 0 0v-.022.021s0 0 0 0z" stroke="currentColor"/></svg><svg fill="none" viewBox="0 0 22 22" id="icon-vk" xmlns="http://www.w3.org/2000/svg"><path d="M9.556 4H12v14C6.5 16.833 2.222 10.417 1 4M21 4c-1.125 2.333-3.375 5.833-5.625 7H12M21 18c-1.2-2.333-3.6-5.833-6-7" stroke="currentColor" stroke-linecap="round" stroke-linejoin="round"/></svg><svg fill="none" viewBox="0 0 200 44" id="logo" xmlns="http://www.w3.org/2000/svg"><path d="M72.91 43.817l-9.274-16.684h-5.818c3.455-.366 6.364-1.65 8.727-3.666 3.091-2.567 4.728-5.867 4.728-9.717 0-3.85-1.637-7.15-4.728-9.717C63.455 1.283 59.455 0 54.91 0H34.545l-12 31.533L10.183 0H0v43.817h2.545V4.767l15.273 39.05h2.91L35.272 4.95v38.867h9.454v-16.5h8.546l9.09 16.5H72.91zm-28.183-18.7V2.2h7.091c5.091 0 8.546 4.583 8.546 11.55 0 6.967-3.455 11.55-8.546 11.55h-7.09v-.183zM126.364 33l-4.546-8.433h-2.909c1.636-.184 3.091-.917 4.364-1.834 1.636-1.283 2.363-2.933 2.363-4.95 0-2.016-.727-3.483-2.363-4.766-1.637-1.284-3.455-2.017-5.819-2.017h-9.818v22h4.728v-8.25h4.363l4.546 8.25h5.091zm-14-9.35V12.1h3.454c2.546 0 4.182 2.2 4.182 5.683 0 3.484-1.636 5.684-4.182 5.684h-3.454v.183zM140.545 33c-3.272 0-6-1.1-8.181-3.117-2.182-2.2-3.273-4.766-3.273-7.883s1.091-5.867 3.273-7.883c2.181-2.2 4.909-3.117 8.181-3.117 3.273 0 6 1.1 8.182 3.117C150.909 16.317 152 18.883 152 22s-1.091 5.867-3.273 7.883c-2.182 2.2-4.909 3.117-8.182 3.117zm0-.733c2 0 3.455-.917 4.728-2.75 1.272-1.834 1.818-4.4 1.818-7.517s-.546-5.5-1.818-7.517c-1.091-1.833-2.728-2.75-4.728-2.75-2 0-3.454.917-4.727 2.75C134.727 16.317 134 18.883 134 22s.545 5.5 1.818 7.517c1.091 1.833 2.727 2.75 4.727 2.75zM172.364 11v17.967c-1.091 1.65-2.909 2.566-5.273 2.566-4 0-6.545-2.566-6.545-6.966V11h-4.728v13.017c0 2.566.909 4.766 2.728 6.416 1.818 1.65 4.181 2.384 7.091 2.384 2.727 0 4.727-.734 6.363-2.2.364-.367.727-.734.909-1.1L176.364 33h.727V11h-4.727zM191.637 11c2.363 0 4.181.733 5.818 2.017 1.636 1.283 2.363 2.933 2.363 4.766 0 2.017-.727 3.484-2.363 4.95-1.637 1.284-3.455 2.017-5.818 2.017h-5.091V33h-4.728V11h9.819zm-1.455 12.65c2.545 0 4.182-2.2 4.182-5.683 0-3.484-1.637-5.684-4.182-5.684h-3.455V23.65h3.455zM98.182 23.65v5.5c-.546 2.016-2.364 3.3-4.91 3.3-2.18 0-3.636-.917-4.908-2.75-1.273-1.834-1.818-4.217-1.818-7.334 0-6.6 3.09-10.45 8.181-10.45 1.819 0 3.273.367 4.364 1.284 1.273.916 1.818 2.016 1.818 3.483h.909c0-1.65-.909-3.3-2.363-4.4-1.455-1.1-3.455-1.467-5.819-1.467-3.454 0-6.181 1.1-8.545 3.117-2.182 2.2-3.273 4.95-3.273 8.067 0 3.116 1.091 5.866 3.273 8.066 2.182 2.2 5.091 3.117 8.182 3.117 2.909 0 5.273-.917 6.364-2.567L102.181 33h.727v-9.35h-4.727z" fill="#fff"/></svg></svg>