<svg width="22" height="22" viewBox="0 0 22 22" fill="none" xmlns="http://www.w3.org/2000/svg">
<path d="M6.31489 16.0922C4.96354 16.9502 3.3945 17.4154 1.78465 17.4279C2.0931 17.5904 2.40824 17.7384 2.72904 17.8717M6.31489 16.0922L20.7358 5.45982C20.2842 5.98716 19.7691 6.4583 19.2014 6.86211C19.21 7.03829 19.2148 7.21876 19.2148 7.39922C19.2148 12.9035 14.9574 19.25 7.16461 19.25C5.24596 19.2552 3.35984 18.7994 1.66266 17.928C1.67388 17.9281 1.6851 17.9281 1.69632 17.9281C2.04273 17.929 2.38749 17.91 2.72904 17.8717M6.31489 16.0922C6.5206 16.123 6.73058 16.1409 6.94393 16.1448L6.9532 15.6449L6.64799 15.2489C6.504 15.3599 6.35667 15.4657 6.20631 15.5662C4.88733 15.3095 3.78765 14.4517 3.21809 13.2949C3.40888 13.3189 3.6011 13.3308 3.79361 13.3305M2.72904 17.8717C4.12818 18.4531 5.63494 18.7542 7.16325 18.75L7.16461 18.75C14.6311 18.75 18.7148 12.6803 18.7148 7.39922C18.7148 7.22739 18.7103 7.05506 18.702 6.88648L18.6887 6.61324L18.9116 6.45468C19.2287 6.22916 19.5283 5.98133 19.8083 5.71337C19.5223 5.77566 19.2331 5.82429 18.9418 5.859L18.63 4.93104C18.9764 4.72818 19.2844 4.47196 19.5443 4.17445C19.0916 4.33993 18.6256 4.46906 18.1505 4.56019L17.8828 4.61156L17.6946 4.41431C17.3427 4.0455 16.9194 3.7521 16.4506 3.55195C15.9818 3.35179 15.4771 3.24906 14.9674 3.25001L14.9664 3.25001C12.8969 3.25001 11.2357 4.8983 11.2357 6.91368V6.91627C11.2343 7.19611 11.2664 7.47512 11.3313 7.74733L11.4854 8.39386L10.8215 8.36274C9.07518 8.28087 7.36521 7.8354 5.80096 7.05481C4.46864 6.38996 3.26702 5.49449 2.2508 4.4118C2.11691 4.79316 2.04741 5.19591 2.04688 5.60346C2.04699 6.86842 2.70665 7.99193 3.71215 8.65289L5.17119 9.61199L3.42564 9.57057C2.97011 9.55976 2.52021 9.48266 2.08978 9.34302C2.38939 10.774 3.53991 11.9041 5.0049 12.1939L5.03668 13.1675C4.63518 13.2745 4.22156 13.3293 3.80607 13.3305C4.44181 14.3953 5.61351 15.12 6.96248 15.145L8.38669 15.1714L7.25842 16.041C5.93918 17.0577 4.37124 17.6876 2.72904 17.8717ZM3.79361 13.3305C3.79352 13.3305 3.79344 13.3305 3.79335 13.3305L3.79335 13.309C3.7936 13.3094 3.79386 13.3098 3.79412 13.3103L3.79415 13.3305C3.79397 13.3305 3.79379 13.3305 3.79361 13.3305Z" stroke="currentColor"/>
</svg>
